<?xml version="1.0" encoding="utf-8"?>
<!-- Generator: Adobe Illustrator 14.0.0, SVG Export Plug-In . SVG Version: 6.00 Build 43363)  -->
<!DOCTYPE svg PUBLIC "-//W3C//DTD SVG 1.1//EN" "http://www.w3.org/Graphics/SVG/1.1/DTD/svg11.dtd">
<svg version="1.1" id="Layer_1" xmlns="http://www.w3.org/2000/svg" xmlns:xlink="http://www.w3.org/1999/xlink" x="0px" y="0px"
	 width="197.834px" height="246px" viewBox="58.75 0 197.834 246" enable-background="new 58.75 0 197.834 246"
	 xml:space="preserve">
<path fill="#1C3155" d="M239.119,118.735c-14.49-27.28-43.19-45.86-76.23-45.86c-19.41,0-37.35,6.42-51.78,17.26v-72.7
	c-0.19-9.39-7.84-16.91-17.26-16.91c-9.43,0-17.05,7.53-17.27,16.91v143.161c0.79,47.02,39.12,84.879,86.3,84.879
	c33.04,0,61.75-18.578,76.23-45.84 M239.108,199.635c0.006,0,21.47-40.396,0.01-80.899 M162.878,210.936
	c-28.58,0-51.78-23.17-51.78-51.76c0-28.6,23.21-51.76,51.78-51.76c28.58,0,51.77,23.161,51.77,51.76
	C214.648,187.766,191.458,210.936,162.878,210.936"/>
</svg>
