<svg version="1.1"
    xmlns="http://www.w3.org/2000/svg"
    xml:space="preserve" width="466pt" height="246pt" viewBox="0 0 466 246">
<defs>
<clipPath id="Clip_2_1_DWYBOV"><path d="M0.06 245.94 l465.47 0 l0 -245.1 l-465.47 0 l0 245.1 " /></clipPath>
</defs>

<g clip-path="url(#Clip_2_1_DWYBOV)" ><path d="M238.78 73.2 c-33.04 0 -61.75 18.58 -76.24 45.86 c-14.49 -27.28 -43.19 -45.86 -76.23 -45.86 c-19.41 0 -37.35 6.42 -51.78 17.26 l0 -72.7 c-0.19 -9.39 -7.84 -16.91 -17.26 -16.91 c-9.43 0 -17.05 7.53 -17.27 16.91 l0 143.16 c0.79 47.02 39.12 84.88 86.3 84.88 c33.04 0 61.75 -18.58 76.23 -45.84 c14.5 27.26 43.2 45.84 76.24 45.84 c47.66 0 86.29 -38.64 86.29 -86.3 c0 -47.66 -38.64 -86.3 -86.29 -86.3 M86.3 211.26 c-28.58 0 -51.78 -23.17 -51.78 -51.76 c0 -28.6 23.21 -51.76 51.78 -51.76 c28.58 0 51.77 23.16 51.77 51.76 c0 28.59 -23.19 51.76 -51.77 51.76 M238.78 211.26 c-28.59 0 -51.77 -23.17 -51.77 -51.76 c0 -28.6 23.17 -51.76 51.77 -51.76 c28.59 0 51.76 23.16 51.76 51.76 c0 28.59 -23.17 51.76 -51.76 51.76 " style="fill:#1c3155;"/><path d="M462 218.64 l-48.07 -59.08 l48.07 -59.08 c5.94 -7.62 4.22 -18.24 -3.97 -23.9 c-8.21 -5.65 -19.76 -4.21 -26.08 3.18 l-41.51 50.97 l-41.51 -50.99 c-6.29 -7.37 -17.88 -8.81 -26.06 -3.13 c-8.2 5.65 -9.91 16.25 -3.94 23.87 l48.06 59.08 l-48.08 59.08 c-5.94 7.63 -4.23 18.24 3.97 23.89 c8.18 5.66 19.77 4.22 26.06 -3.15 l41.51 -51 l41.51 51 c6.32 7.38 17.87 8.81 26.08 3.16 c8.19 -5.66 9.91 -16.27 3.97 -23.9 " style="fill:#1c3155;"/></g>
</svg>
