<svg version="1.1"
    xmlns="http://www.w3.org/2000/svg"
    xml:space="preserve" viewBox="0 0 50 32">
<path d="M48 16 c-1.42 -3.78 -4.72 -6.15 -8.5 -6.62 c-1.18 -2.84 -3.31 -5.2 -5.9 -6.38 c-0.47 -0.24 -1.18 0 -1.18 0.47 c-0.24 0.47 0 0.95 0.47 1.18 c2.36 1.18 4.25 3.31 4.96 5.91 c0 0.24 0.47 0.71 0.94 0.71 c3.3 0.24 6.37 2.13 7.56 5.44 c0 0 1.18 3.07 0.23 5.68 c-1.18 3.78 -4.49 6.38 -8.5 6.38 c-28.34 0 -28.34 0 -28.34 0 c-3.54 0 -6.14 -2.84 -6.14 -6.15 c0 -3.54 2.6 -6.38 6.14 -6.38 c0.24 0 0.24 0 0.24 0 c0.47 0 0.71 -0.24 0.94 -0.71 c0.94 -3.55 4.02 -5.91 7.56 -5.91 c0.47 0 0.71 0 1.18 0.23 c0.24 0 0.71 -0.23 0.95 -0.7 c0.95 -1.9 2.6 -3.55 4.72 -4.5 c0.47 -0.23 0.71 -0.71 0.47 -1.18 c-0.24 -0.47 -0.71 -0.71 -1.18 -0.47 c-2.36 0.94 -4.25 2.6 -5.43 4.73 c-0.24 0 -0.47 0 -0.71 0 c-4.25 0 -7.79 2.6 -9.21 6.62 c-4.25 0.23 -7.56 3.78 -7.56 8.27 c0 4.49 3.54 8.04 8.03 8.04 c28.34 0 28.34 0 28.34 0 c4.96 0 8.97 -3.07 10.39 -7.56 c0.94 -3.32 -0.24 -6.63 -0.47 -7.1 z " style="fill:#ffffff;"></path>
<path d="M28.2 3 c0 -0.52 0.43 -0.95 0.95 -0.95 c0.53 0 0.95 0.43 0.95 0.95 c0 0.53 -0.42 0.95 -0.95 0.95 c-0.52 0 -0.95 -0.42 -0.95 -0.95 z " style="fill:#ffffff;"/>
</svg>
